# xmcd CD database file
#
# Track frame offsets:
#	150
#	11895
#	23172
#	33182
#	46430
#	57165
#	69637
#	82845
#	100232
#	118432
#	132127
#	141752
#	150510
#	161957
#	170487
#	187962
#	200742
#	210325
#	220827
#	234500
#
# Disc length: 3281 seconds
#
# Revision: 0
# Processed by: cddbd v1.4PL0 Copyright (c) Steve Scherf et al.
# Submitted via: CDex 1.50Beta6
#
DISCID=180ccf14
DTITLE=Various Artist - Story of Bossa Nova
DYEAR=2000
DGENRE=Jazz
TTITLE0=Leila Pinheiro - Chega de Sandade
TTITLE1=Marcos Valle - Samba de Verão
TTITLE2=Pery Ribeiro - Garota de Ipanema
TTITLE3=Joyce - Corcovado
TTITLE4=Walter Wanderley - Samba de Uma Nota Só
TTITLE5=Sylvia Telles - Fotografía
TTITLE6=Agostinho Dos Santos - A Felicidade
TTITLE7=Luis Eca and Astor - Meditação
TTITLE8=Nana Caymmi - Copacabana
TTITLE9=Dick Farney and Claudette Soares - Amor Em Paz
TTITLE10=Milton Banana Trio - Você
TTITLE11=Doris Monteiro - Ao Amigo Tom
TTITLE12=Joao Donato - A Rã
TTITLE13=Sylvia Telles - Só Em Teus Braços
TTITLE14=Leila Pinheiro - Samba Do Avião
TTITLE15=Pery Ribeiro - O Barquinho
TTITLE16=Marlene - Brigas, Nunca Mais
TTITLE17=Lucio Alves - Se Todas Fossem Iguais a Voce
TTITLE18=Marcos Valle - Vivo Sonhando
TTITLE19=Sylvia Telles - Dindi
EXTD=YEAR: 2000
EXTT0=
EXTT1=
EXTT2=
EXTT3=
EXTT4=
EXTT5=
EXTT6=
EXTT7=
EXTT8=
EXTT9=
EXTT10=
EXTT11=
EXTT12=
EXTT13=
EXTT14=
EXTT15=
EXTT16=
EXTT17=
EXTT18=
EXTT19=
PLAYORDER=
